# xmcd CD database file
#
# Track frame offsets:
#	150
#	22035
#	53079
#	70654
#
# Disc length: 1349 seconds
#
# Revision: 0
# Processed by: cddbd v1.5.2PL0 Copyright (c) Steve Scherf et al.
# Submitted via: CDex 1.51
#
DISCID=2d054304
DTITLE=Houston Person - The Art and Soul Of Houston Person
DYEAR=2005
DGENRE=Jazz
TTITLE0=You Do Something To Me [Cole Porter]
TTITLE1=I Don't Stand A Ghost Of A Chance With You
TTITLE2=You're A Sweetheart
TTITLE3=Maybe You'll Be There
EXTD=YEAR: 2005
EXTT0=
EXTT1=
EXTT2=
EXTT3=
PLAYORDER=
